<?xml version="1.0" encoding="UTF-8"?>
<svg version="1.1" xmlns="http://www.w3.org/2000/svg" width="512" height="512">
<path d="M0 0 C2.06271639 0.3110685 4.12516466 0.62391516 6.1875 0.9375 C7.91033203 1.19853516 7.91033203 1.19853516 9.66796875 1.46484375 C12.46325212 1.91379313 15.22933586 2.42082162 18 3 C17.69255859 4.37671875 17.69255859 4.37671875 17.37890625 5.78125 C15.34539408 15.04394657 13.92900281 23.74762359 13.875 33.25 C13.87024658 33.94851074 13.86549316 34.64702148 13.8605957 35.36669922 C13.87151498 38.71932014 13.95931472 41.7953501 15 45 C24.89180011 36.80262861 31.89047884 27.59334589 38.3359375 16.58984375 C40 14 40 14 42 13 C44.45669355 14.41097867 46.77914624 15.86043594 49.125 17.4375 C49.78371094 17.87126953 50.44242187 18.30503906 51.12109375 18.75195312 C52.75212943 19.82749114 54.37668453 20.91284486 56 22 C49.61382222 36.57787179 32.73175734 47.23095373 19 54 C21.03345499 60.29005754 23.27592021 66.470135 25.67578125 72.62890625 C26.21217979 74.01262672 26.21217979 74.01262672 26.75941467 75.42430115 C27.94147497 78.47126676 29.12685563 81.51692741 30.3125 84.5625 C31.15255818 86.7245893 31.99256356 88.88669912 32.83251953 91.04882812 C42.00336905 114.63718114 51.26431263 138.19025815 60.53564453 161.73925781 C62.44371525 166.58587782 64.34984441 171.43325645 66.25457764 176.28118896 C67.49435938 179.43654607 68.73488727 182.59160937 69.97564697 185.74658203 C70.52698028 187.14882074 71.07805282 188.55116201 71.62884521 189.95361328 C72.36236442 191.82098242 73.09715411 193.68785234 73.83203125 195.5546875 C74.23139893 196.57030762 74.6307666 197.58592773 75.04223633 198.63232422 C75.94938514 200.96474605 75.94938514 200.96474605 77 203 C86.08064518 190.72397051 95.08069158 178.39365863 104 166 C111.20122344 155.9936743 118.44255899 146.02060494 125.76928711 136.10571289 C129.71407041 130.76164384 133.61962408 125.39098455 137.5 120 C141.96020953 113.80345586 146.46259635 107.64023977 151 101.5 C157.17092741 93.14678579 163.26667152 84.74166374 169.33398438 76.31298828 C172.32252604 72.16389044 175.31800486 68.01980196 178.3125 63.875 C179.41278882 62.35158301 180.51305199 60.8281475 181.61328125 59.3046875 C182.40089844 58.21414062 183.18851562 57.12359375 184 56 C181.03 55.34 178.06 54.68 175 54 C174.25 51.8125 174.25 51.8125 174 49 C175.31321858 47.3174387 176.64613064 45.65002828 178 44 C178.23075102 41.9172483 178.23075102 41.9172483 177 40 C176.154375 39.175 175.30875 38.35 174.4375 37.5 C172 35 172 35 172 31 C176.95 29.02 176.95 29.02 182 27 C182 23.04 182 19.08 182 15 C186.03994039 15.55450162 189.99777881 16.19955576 194 17 C195.65 14.03 197.3 11.06 199 8 C203.59517784 9.14879446 204.40906725 10.20613419 207 14 C207 14.66 207 15.32 207 16 C210.37462715 15.45276317 212.08235 14.9451 215 13 C218.1875 12.875 218.1875 12.875 221 13 C221.33 16.63 221.66 20.26 222 24 C227.445 25.485 227.445 25.485 233 27 C232.01574101 31.92129494 231.1837982 33.40538913 228 37 C229.09898852 39.56430654 230.06785768 41.06386605 232.125 43 C234 45 234 45 234 49 C229.05 50.98 229.05 50.98 224 53 C224.185625 54.60875 224.37125 56.2175 224.5625 57.875 C225.125 62.75 225.125 62.75 224 65 C220.53058454 64.54177532 217.32604951 64.10868317 214 63 C214.0973346 63.6133065 214.19466921 64.22661299 214.29495335 64.85850453 C220.06737758 101.23213878 225.83013183 137.60729281 231.58038443 173.98443897 C232.27129277 178.35519699 232.96228164 182.72594227 233.65332031 187.09667969 C233.85967273 188.40184737 233.85967273 188.40184737 234.07019389 189.73338208 C236.29599217 203.81018932 238.52830881 217.88595542 240.76304877 231.96134558 C243.05704865 246.41092135 245.34401071 260.86159835 247.62448406 275.31331515 C249.03114693 284.22612563 250.44324996 293.13803871 251.86239028 302.04887113 C252.83587003 308.16477399 253.80249313 314.28173623 254.7638104 320.39956251 C255.31810291 323.92577811 255.87533031 327.45146095 256.44073105 330.975914 C257.05511492 334.80621355 257.65501372 338.63870453 258.25366211 342.47149658 C258.43264573 343.57269939 258.61162935 344.67390219 258.79603672 345.80847478 C261.68587677 364.58357662 261.68587677 364.58357662 258.125 369.6875 C253.66502342 371.56069016 249.82035124 371.86626287 245 372 C243.73542969 372.03996094 242.47085937 372.07992188 241.16796875 372.12109375 C207.306818 372.78355338 173.22828949 369.25119732 140 363 C142.16535239 369.85896539 144.7887768 376.40454468 147.74609375 382.95703125 C149.08344281 386.06622675 150.01098986 388.3515984 149.953125 391.765625 C147.51205182 397.48814081 142.39394359 399.50406359 137.00634766 401.83544922 C132.31626097 403.65221985 127.5822358 404.92625782 122.6875 406.0625 C121.62136475 406.31290039 120.55522949 406.56330078 119.45678711 406.82128906 C97.65644998 411.71854596 75.26890477 413.68458264 53 415 C51.60080322 415.08677002 51.60080322 415.08677002 50.17333984 415.17529297 C-88.45681256 423.45428665 -88.45681256 423.45428665 -124 397 C-126 394 -126 394 -125.75415039 391.16357422 C-125.02318016 388.0972381 -124.10069443 385.30878322 -122.93359375 382.3828125 C-122.3293457 380.85527344 -122.3293457 380.85527344 -121.71289062 379.296875 C-121.29201172 378.25015625 -120.87113281 377.2034375 -120.4375 376.125 C-120.01275391 375.05507813 -119.58800781 373.98515625 -119.15039062 372.8828125 C-118.10553151 370.25305474 -117.05526218 367.62559658 -116 365 C-117.02843018 365.14099121 -118.05686035 365.28198242 -119.11645508 365.42724609 C-150.65109444 369.71479398 -182.1270391 372.87130104 -214 372 C-214.80034668 371.98066406 -215.60069336 371.96132813 -216.42529297 371.94140625 C-230.21112687 371.55218611 -230.21112687 371.55218611 -235 368 C-238.25629103 361.48741795 -235.67866264 351.60433654 -234.42138672 344.71682739 C-234.25143849 343.7427924 -234.08149027 342.76875742 -233.9063921 341.76520622 C-233.33972537 338.53079719 -232.7597351 335.29892845 -232.1796875 332.06689453 C-231.76822054 329.73451725 -231.35758288 327.40199355 -230.94770813 325.06933594 C-229.83373382 318.7433401 -228.70816504 312.41945653 -227.58050156 306.09588861 C-226.51345225 300.10712338 -225.45695623 294.11649263 -224.3994478 288.12603687 C-222.29630522 276.21405841 -220.1847426 264.30358873 -218.06787109 252.39404297 C-216.03251532 240.94300199 -214.00106228 229.49128062 -211.97509766 218.03857422 C-211.85118007 217.3380804 -211.72726249 216.63758658 -211.59958982 215.91586567 C-210.97674366 212.39484063 -210.35397246 208.87380233 -209.73123169 205.35275865 C-201.51470028 158.89700951 -193.26058931 112.44793269 -185 66 C-189.95 66.495 -189.95 66.495 -195 67 C-195 63.04 -195 59.08 -195 55 C-196.464375 54.566875 -197.92875 54.13375 -199.4375 53.6875 C-201.93359375 52.94921875 -201.93359375 52.94921875 -204 52 C-204.33 51.01 -204.66 50.02 -205 49 C-203.56640625 46.95703125 -203.56640625 46.95703125 -201.5625 44.8125 C-200.90378906 44.09707031 -200.24507812 43.38164063 -199.56640625 42.64453125 C-199.04949219 42.10183594 -198.53257812 41.55914062 -198 41 C-198.639375 39.9275 -199.27875 38.855 -199.9375 37.75 C-201.40601273 35.19177818 -202.52854542 32.94659114 -203 30 C-199.46588679 27.87953208 -196.05606165 27.46800711 -192 27 C-191.67 23.37 -191.34 19.74 -191 16 C-186.71372952 14.92843238 -186.33924618 14.9634146 -182.75 16.9375 C-182.04359375 17.31777344 -181.3371875 17.69804688 -180.609375 18.08984375 C-180.07828125 18.39019531 -179.5471875 18.69054687 -179 19 C-176.39391727 16.4837822 -174.10618315 13.94865641 -172 11 C-170.140625 11.24609375 -170.140625 11.24609375 -168 12 C-166.27056087 14.52476762 -165.25011013 17.1872522 -164 20 C-160.04 19.67 -156.08 19.34 -152 19 C-152 22.96 -152 26.92 -152 31 C-149.8034375 31.61875 -149.8034375 31.61875 -147.5625 32.25 C-145.06640625 32.953125 -145.06640625 32.953125 -143 34 C-142 35.875 -142 35.875 -142 38 C-143.43359375 39.921875 -143.43359375 39.921875 -145.4375 41.75 C-146.09621094 42.36359375 -146.75492187 42.9771875 -147.43359375 43.609375 C-147.95050781 44.06828125 -148.46742188 44.5271875 -149 45 C-147.38731308 47.71224618 -145.75098126 50.37352812 -144 53 C-144.33 54.32 -144.66 55.64 -145 57 C-147.64 57.66 -150.28 58.32 -153 59 C-146.58066605 68.48530819 -140.11425841 77.92584505 -133.375 87.1875 C-128.84819596 93.4086453 -124.42518122 99.68708323 -120.08666992 106.04077148 C-116.8290325 110.80754371 -113.52344518 115.53772413 -110.1875 120.25 C-105.81611174 126.42555485 -101.46192179 132.61268274 -97.125 138.8125 C-96.54145752 139.646604 -95.95791504 140.48070801 -95.35668945 141.34008789 C-92.9736953 144.7469354 -90.59135497 148.15423987 -88.20898438 151.56152344 C-76.88086146 167.76135823 -65.51146514 183.92979092 -54 200 C-51.25440164 197.25440164 -50.35625463 194.0055806 -49.05078125 190.42578125 C-48.76195572 189.6480838 -48.47313019 188.87038635 -48.17555237 188.06912231 C-47.54773677 186.37740887 -46.92232494 184.6848019 -46.29901123 182.99142456 C-44.6058258 178.39348801 -42.89357911 173.80264663 -41.18359375 169.2109375 C-40.83218323 168.26598923 -40.48077271 167.32104095 -40.11871338 166.34745789 C-36.76931588 157.35210802 -33.3336232 148.39130515 -29.875 139.4375 C-28.64792054 136.25670967 -27.42153542 133.07565187 -26.1953125 129.89453125 C-25.87487473 129.06336288 -25.55443695 128.23219452 -25.22428894 127.37583923 C-20.85691889 116.04168883 -16.51379349 104.69824893 -12.17584229 93.35281372 C-11.23236349 90.88612212 -10.28816066 88.41970732 -9.34320068 85.95358276 C-8.01339418 82.48278601 -6.686085 79.01104388 -5.359375 75.5390625 C-4.96313934 74.50629684 -4.56690369 73.47353119 -4.15866089 72.4094696 C-1.96043509 66.64732377 0.0945421 60.86568764 2 55 C1.27296875 54.67128906 0.5459375 54.34257812 -0.203125 54.00390625 C-11.63097048 48.59765627 -20.74058313 41.4904435 -29.6875 32.6875 C-30.60668213 31.7893457 -30.60668213 31.7893457 -31.54443359 30.87304688 C-32.1111377 30.30005859 -32.6778418 29.72707031 -33.26171875 29.13671875 C-34.01908325 28.37427856 -34.01908325 28.37427856 -34.79174805 27.59643555 C-36 26 -36 26 -37 22 C-32.38 19.03 -27.76 16.06 -23 13 C-20.03303349 15.96696651 -18.04022439 19.02344546 -15.875 22.5625 C-10.67803395 30.84798557 -4.77591144 37.99134116 3 44 C2.79503906 43.11699219 2.59007812 42.23398438 2.37890625 41.32421875 C-0.6696404 27.74432913 -2.51569751 13.83633632 0 0 Z " fill="#8EC8CC" transform="translate(244,79)"/>
<path d="M0 0 C4.59517784 1.14879446 5.40906725 2.20613419 8 6 C8 6.66 8 7.32 8 8 C11.37462715 7.45276317 13.08235 6.9451 16 5 C19.1875 4.875 19.1875 4.875 22 5 C22.33 8.63 22.66 12.26 23 16 C28.445 17.485 28.445 17.485 34 19 C33.01574101 23.92129494 32.1837982 25.40538913 29 29 C30.09898852 31.56430654 31.06785768 33.06386605 33.125 35 C35 37 35 37 35 41 C31.7 42.32 28.4 43.64 25 45 C25.185625 46.60875 25.37125 48.2175 25.5625 49.875 C26.125 54.75 26.125 54.75 25 57 C21.53058454 56.54177532 18.32604951 56.10868317 15 55 C15.0973346 55.6133065 15.19466921 56.22661299 15.29495335 56.85850453 C21.06737758 93.23213878 26.83013183 129.60729281 32.58038443 165.98443897 C33.27129277 170.35519699 33.96228164 174.72594227 34.65332031 179.09667969 C34.79088859 179.96679148 34.92845687 180.83690326 35.07019389 181.73338208 C37.29599217 195.81018932 39.52830881 209.88595542 41.76304877 223.96134558 C44.05704865 238.41092135 46.34401071 252.86159835 48.62448406 267.31331515 C50.03114693 276.22612563 51.44324996 285.13803871 52.86239028 294.04887113 C53.83587003 300.16477399 54.80249313 306.28173623 55.7638104 312.39956251 C56.31810291 315.92577811 56.87533031 319.45146095 57.44073105 322.975914 C58.05511492 326.80621355 58.65501372 330.63870453 59.25366211 334.47149658 C59.43264573 335.57269939 59.61162935 336.67390219 59.79603672 337.80847478 C62.68587677 356.58357662 62.68587677 356.58357662 59.125 361.6875 C54.66502342 363.56069016 50.82035124 363.86626287 46 364 C44.73542969 364.03996094 43.47085938 364.07992188 42.16796875 364.12109375 C11.78783985 364.71545066 -19.01311403 361.97150885 -48.9375 356.9375 C-49.90985596 356.77523926 -50.88221191 356.61297852 -51.8840332 356.44580078 C-52.77695068 356.28708496 -53.66986816 356.12836914 -54.58984375 355.96484375 C-55.76341431 355.75782837 -55.76341431 355.75782837 -56.96069336 355.54663086 C-59 355 -59 355 -62 353 C-62.9921875 350.72265625 -62.9921875 350.72265625 -63.875 348.0625 C-65.11796192 344.79972495 -65.73880387 343.2337018 -68.375 340.875 C-72.86736078 339.37754641 -75.94333961 339.50274805 -80.25390625 341.53125 C-81.34574219 342.1809375 -82.43757813 342.830625 -83.5625 343.5 C-90.28636484 347.49155227 -90.28636484 347.49155227 -95 347 C-95.02804921 345.41677806 -95.04684498 343.833393 -95.0625 342.25 C-95.08054687 341.24195313 -95.09859375 340.23390625 -95.1171875 339.1953125 C-95 336 -95 336 -94.3203125 333.0546875 C-93.58438668 329.6476235 -93.29291765 327.43684877 -94 324 C-96.37815477 320.69166856 -99.32684302 318.00350964 -102.4128418 315.36376953 C-104.01371766 313.98862214 -105.51607414 312.50059919 -107 311 C-106.73522632 308.87788799 -106.53236459 307.53236459 -105 306 C-101.91151377 305.55179285 -98.82406589 305.18149574 -95.72265625 304.83789062 C-90.11552228 304.18889703 -90.11552228 304.18889703 -85 302 C-83.7618391 298.1363119 -84.09478646 295.81879698 -85.56713867 292.09301758 C-85.93469772 291.1446553 -86.30225677 290.19629303 -86.68095398 289.2191925 C-87.08916885 288.20455429 -87.49738373 287.18991608 -87.91796875 286.14453125 C-88.53844841 284.55930916 -88.53844841 284.55930916 -89.17146301 282.94206238 C-90.49822828 279.56070963 -91.84259374 276.18667278 -93.1875 272.8125 C-94.0747303 270.55970232 -94.96081106 268.30645154 -95.84570312 266.05273438 C-97.48540162 261.88365272 -99.13075518 257.7169338 -100.78588867 253.55395508 C-101.15350311 252.62712418 -101.52111755 251.70029327 -101.89987183 250.74537659 C-102.64149389 248.89465419 -103.39446886 247.04844589 -104.1579895 245.20664978 C-104.52068939 244.32666824 -104.88338928 243.44668671 -105.25708008 242.54003906 C-105.58154617 241.76412415 -105.90601227 240.98820923 -106.24031067 240.18878174 C-107.45125204 236.69987351 -107.47041227 233.63226784 -107.5 229.9375 C-107.89140411 218.19262994 -112.76306361 210.92600696 -120.375 202.3125 C-122.34001015 199.5161394 -122.3403248 198.35454037 -122 195 C-120.92114258 192.97387695 -120.92114258 192.97387695 -119.39453125 190.98828125 C-118.82984131 190.2398999 -118.26515137 189.49151855 -117.68334961 188.72045898 C-117.06596924 187.92583252 -116.44858887 187.13120605 -115.8125 186.3125 C-114.51732999 184.60224307 -113.22307992 182.89128914 -111.9296875 181.1796875 C-111.2706543 180.3144043 -110.61162109 179.44912109 -109.93261719 178.55761719 C-107.03910892 174.72836092 -104.23582032 170.83657325 -101.4375 166.9375 C-100.36209887 165.44522623 -99.28657791 163.95303881 -98.2109375 162.4609375 C-97.14050489 160.97404479 -96.07019227 159.4870657 -95 158 C-87.79877656 147.9936743 -80.55744101 138.02060494 -73.23071289 128.10571289 C-69.28592959 122.76164384 -65.38037592 117.39098455 -61.5 112 C-57.03979047 105.80345586 -52.53740365 99.64023977 -48 93.5 C-41.82907259 85.14678579 -35.73332848 76.74166374 -29.66601562 68.31298828 C-26.67747396 64.16389044 -23.68199514 60.01980196 -20.6875 55.875 C-19.58721118 54.35158301 -18.48694801 52.8281475 -17.38671875 51.3046875 C-16.59910156 50.21414062 -15.81148438 49.12359375 -15 48 C-17.97 47.34 -20.94 46.68 -24 46 C-24.75 43.8125 -24.75 43.8125 -25 41 C-23.68678142 39.3174387 -22.35386936 37.65002828 -21 36 C-20.76924898 33.9172483 -20.76924898 33.9172483 -22 32 C-22.845625 31.175 -23.69125 30.35 -24.5625 29.5 C-27 27 -27 27 -27 23 C-23.7 21.68 -20.4 20.36 -17 19 C-17 15.04 -17 11.08 -17 7 C-12.96005961 7.55450162 -9.00222119 8.19955576 -5 9 C-3.35 6.03 -1.7 3.06 0 0 Z " fill="#E94D7B" transform="translate(443,87)"/>
<path d="M0 0 C1.859375 0.24609375 1.859375 0.24609375 4 1 C5.72943913 3.52476762 6.74988987 6.1872522 8 9 C11.96 8.67 15.92 8.34 20 8 C20 11.96 20 15.92 20 20 C22.1965625 20.61875 22.1965625 20.61875 24.4375 21.25 C26.93359375 21.953125 26.93359375 21.953125 29 23 C30 24.875 30 24.875 30 27 C28.56640625 28.921875 28.56640625 28.921875 26.5625 30.75 C25.90378906 31.36359375 25.24507813 31.9771875 24.56640625 32.609375 C24.04949219 33.06828125 23.53257813 33.5271875 23 34 C24.61268692 36.71224618 26.24901874 39.37352812 28 42 C27.67 43.32 27.34 44.64 27 46 C24.36 46.66 21.72 47.32 19 48 C25.41933395 57.48530819 31.88574159 66.92584505 38.625 76.1875 C43.15180404 82.4086453 47.57481878 88.68708323 51.91333008 95.04077148 C55.1709675 99.80754371 58.47655482 104.53772413 61.8125 109.25 C66.18388826 115.42555485 70.53807821 121.61268274 74.875 127.8125 C75.45854248 128.646604 76.04208496 129.48070801 76.64331055 130.34008789 C79.0263047 133.7469354 81.40864503 137.15423987 83.79101562 140.56152344 C85.56871112 143.10372514 87.34674121 145.64569229 89.125 148.1875 C89.99547974 149.43188843 89.99547974 149.43188843 90.88354492 150.70141602 C94.14020486 155.35372199 97.40660524 159.99883185 100.69067383 164.63183594 C101.67805274 166.02907936 102.66106931 167.42941708 103.6394043 168.83300781 C106.11320638 172.37768535 108.64147091 175.85041379 111.296875 179.26171875 C111.82385986 179.96264648 112.35084473 180.66357422 112.89379883 181.38574219 C113.89036867 182.71029903 114.91231807 184.01630558 115.96362305 185.29785156 C117.92717015 187.95963587 119.10164462 189.80884789 118.81420898 193.17724609 C118.05529152 195.88285505 117.07507717 198.40297755 116 201 C115.56147705 202.12784912 115.1229541 203.25569824 114.67114258 204.41772461 C112.93796437 208.85890199 111.19507268 213.29643346 109.3840332 217.70654297 C108.60717035 219.60522343 107.85462726 221.51212391 107.10546875 223.421875 C106.65324951 224.54174805 106.20103027 225.66162109 105.73510742 226.81542969 C104.85107393 230.64516496 105.47145385 232.43267252 107 236 C107.4125 237.2375 107.825 238.475 108.25 239.75 C109.17933521 241.63334039 109.17933521 241.63334039 111 243 C115.63215907 244.21701401 120.2286033 244.68743524 125 245 C125.70703125 247.26171875 125.70703125 247.26171875 126 250 C124.63671875 252.01953125 124.63671875 252.01953125 122.6875 253.8125 C122.05199219 254.41707031 121.41648438 255.02164063 120.76171875 255.64453125 C119 257 119 257 117 257 C117.33 262.94 117.66 268.88 118 275 C113.39265957 276.15183511 113.0013846 275.77028132 109.125 273.5 C105.29227735 271.4844057 105.29227735 271.4844057 101.0625 270.875 C100.051875 271.24625 99.04125 271.6175 98 272 C97.16973801 272.26051147 96.33947601 272.52102295 95.48405457 272.78942871 C89.80609604 274.87867866 86.5404189 276.68310493 83.95043945 282.28320312 C83.13050465 284.43407592 82.35357305 286.60168241 81.61328125 288.78125 C81.18170212 289.94515259 80.75012299 291.10905518 80.3054657 292.30822754 C79.16656145 295.40113026 78.06308009 298.5037001 76.97619629 301.61517334 C75.88894647 304.70284686 74.75786134 307.77431306 73.63085938 310.84765625 C68.60493243 324.53721939 68.60493243 324.53721939 63.94921875 338.35498047 C63.62140915 339.32818237 63.29359955 340.30138428 62.95585632 341.30407715 C62.35328532 343.09434042 61.78291442 344.89593516 61.25325012 346.70910645 C59.98856746 350.3646794 59.13908093 352.41801464 55.60826111 354.22200012 C50.8031882 355.72119938 45.99872215 356.49997716 40.96484375 356.65234375 C36.13173367 356.87256402 31.37227488 357.25258926 26.56640625 357.81640625 C0.80638068 360.8102955 -25.20706522 361.92270149 -51.125 360.6875 C-52.34445313 360.62949219 -53.56390625 360.57148438 -54.8203125 360.51171875 C-58.23641943 359.96195216 -60.23508353 359.05089958 -63 357 C-66.25629103 350.48741795 -63.67866264 340.60433654 -62.42138672 333.71682739 C-62.25143849 332.7427924 -62.08149027 331.76875742 -61.9063921 330.76520622 C-61.33972537 327.53079719 -60.7597351 324.29892845 -60.1796875 321.06689453 C-59.76822054 318.73451725 -59.35758288 316.40199355 -58.94770813 314.06933594 C-57.83373382 307.7433401 -56.70816504 301.41945653 -55.58050156 295.09588861 C-54.51345225 289.10712338 -53.45695623 283.11649263 -52.3994478 277.12603687 C-50.29630522 265.21405841 -48.1847426 253.30358873 -46.06787109 241.39404297 C-44.03251532 229.94300199 -42.00106228 218.49128062 -39.97509766 207.03857422 C-39.85118007 206.3380804 -39.72726249 205.63758658 -39.59958982 204.91586567 C-38.97674366 201.39484063 -38.35397246 197.87380233 -37.73123169 194.35275865 C-29.51470028 147.89700951 -21.26058931 101.44793269 -13 55 C-17.95 55.495 -17.95 55.495 -23 56 C-23 52.04 -23 48.08 -23 44 C-24.464375 43.566875 -25.92875 43.13375 -27.4375 42.6875 C-29.93359375 41.94921875 -29.93359375 41.94921875 -32 41 C-32.33 40.01 -32.66 39.02 -33 38 C-31.56640625 35.95703125 -31.56640625 35.95703125 -29.5625 33.8125 C-28.90378906 33.09707031 -28.24507812 32.38164063 -27.56640625 31.64453125 C-27.04949219 31.10183594 -26.53257813 30.55914062 -26 30 C-26.9590625 28.39125 -26.9590625 28.39125 -27.9375 26.75 C-29.40601273 24.19177818 -30.52854542 21.94659114 -31 19 C-27.46588679 16.87953208 -24.05606165 16.46800711 -20 16 C-19.67 12.37 -19.34 8.74 -19 5 C-14.71372952 3.92843238 -14.33924618 3.9634146 -10.75 5.9375 C-10.04359375 6.31777344 -9.3371875 6.69804688 -8.609375 7.08984375 C-8.07828125 7.39019531 -7.5471875 7.69054687 -7 8 C-4.39391727 5.4837822 -2.10618315 2.94865641 0 0 Z " fill="#F06D8D" transform="translate(72,90)"/>
<path d="M0 0 C1.859375 0.24609375 1.859375 0.24609375 4 1 C5.72943913 3.52476762 6.74988987 6.1872522 8 9 C13.94 8.505 13.94 8.505 20 8 C20 11.96 20 15.92 20 20 C21.464375 20.4125 22.92875 20.825 24.4375 21.25 C26.93359375 21.953125 26.93359375 21.953125 29 23 C30 24.875 30 24.875 30 27 C28.56640625 28.921875 28.56640625 28.921875 26.5625 30.75 C25.90378906 31.36359375 25.24507812 31.9771875 24.56640625 32.609375 C23.79103516 33.29773438 23.79103516 33.29773438 23 34 C24.61268692 36.71224618 26.24901874 39.37352812 28 42 C27.67 43.32 27.34 44.64 27 46 C24.36 46.66 21.72 47.32 19 48 C25.41933395 57.48530819 31.88574159 66.92584505 38.625 76.1875 C43.15180404 82.4086453 47.57481878 88.68708323 51.91333008 95.04077148 C55.65659186 100.51813865 59.47057358 105.94271395 63.30444336 111.35693359 C67.26547881 116.95265179 71.19868029 122.5673799 75.125 128.1875 C80.69857719 136.16225068 86.32266517 144.09882434 92 152 C91.67 152.66 91.34 153.32 91 154 C88.67089844 154.67016602 88.67089844 154.67016602 85.609375 155.25390625 C84.50722656 155.46853516 83.40507812 155.68316406 82.26953125 155.90429688 C81.10808594 156.12150391 79.94664062 156.33871094 78.75 156.5625 C77.60402344 156.78357422 76.45804687 157.00464844 75.27734375 157.23242188 C73.13453867 157.64526732 70.99104475 158.05456388 68.84667969 158.45922852 C67.11172544 158.7888103 65.38148213 159.14695535 63.66333008 159.55517578 C59.93777287 160.17741111 56.23187384 160.20194792 52.46484375 160.23828125 C51.63771881 160.2480751 50.81059387 160.25786896 49.95840454 160.26795959 C15.64759742 160.59072935 15.64759742 160.59072935 1 156 C0.25331055 155.77505859 -0.49337891 155.55011719 -1.26269531 155.31835938 C-10.3907072 152.51390037 -18.81622331 148.9845033 -27 144 C-27.47889962 134.34504156 -25.66432832 125.18963968 -23.9375 115.7421875 C-23.62286264 113.98541521 -23.3089915 112.22850554 -22.99584961 110.47146606 C-22.17489905 105.87689959 -21.3436405 101.28425809 -20.51013184 96.69195557 C-19.65930626 91.99368412 -18.81836635 87.2936447 -17.9765625 82.59375 C-16.32731211 73.39408854 -14.66715317 64.19643274 -13 55 C-17.95 55.495 -17.95 55.495 -23 56 C-23 52.04 -23 48.08 -23 44 C-24.464375 43.566875 -25.92875 43.13375 -27.4375 42.6875 C-29.93359375 41.94921875 -29.93359375 41.94921875 -32 41 C-32.495 39.515 -32.495 39.515 -33 38 C-31.56640625 35.95703125 -31.56640625 35.95703125 -29.5625 33.8125 C-28.90378906 33.09707031 -28.24507812 32.38164063 -27.56640625 31.64453125 C-27.04949219 31.10183594 -26.53257813 30.55914062 -26 30 C-26.9590625 28.39125 -26.9590625 28.39125 -27.9375 26.75 C-29.40601273 24.19177818 -30.52854542 21.94659114 -31 19 C-27.46588679 16.87953208 -24.05606165 16.46800711 -20 16 C-19.67 12.37 -19.34 8.74 -19 5 C-14.71372952 3.92843238 -14.33924618 3.9634146 -10.75 5.9375 C-10.04359375 6.31777344 -9.3371875 6.69804688 -8.609375 7.08984375 C-8.07828125 7.39019531 -7.5471875 7.69054687 -7 8 C-4.39391727 5.4837822 -2.10618315 2.94865641 0 0 Z " fill="#F06D8D" transform="translate(72,90)"/>
<path d="M0 0 C0.33 0 0.66 0 1 0 C1 1.98 1 3.96 1 6 C1.89351669 5.93016907 2.78703339 5.86033813 3.70762634 5.78839111 C13.2481076 5.09118711 22.7509116 4.82387717 32.31640625 4.796875 C33.85149664 4.78993999 35.38658677 4.78294487 36.92167664 4.77589417 C41.80195411 4.75673212 46.68218934 4.75197746 51.5625 4.75 C52.80567238 4.74889536 52.80567238 4.74889536 54.07395935 4.7477684 C78.83818889 4.72981831 103.37935623 5.06913537 128 8 C129.08216797 8.11746582 130.16433594 8.23493164 131.27929688 8.35595703 C167.8240662 12.33602306 167.8240662 12.33602306 183 21 C183.89332031 21.4846875 184.78664063 21.969375 185.70703125 22.46875 C188 24 188 24 189.125 26.875 C189 30 189 30 187.25 32.5625 C180.28762913 38.56029864 170.43800585 41.03119652 161.6875 43.0625 C160.62136475 43.31290039 159.55522949 43.56330078 158.45678711 43.82128906 C136.65644998 48.71854596 114.26890477 50.68458264 92 52 C91.06720215 52.05784668 90.1344043 52.11569336 89.17333984 52.17529297 C-49.45681256 60.45428665 -49.45681256 60.45428665 -85 34 C-87 31 -87 31 -87 27 C-81.23277723 20.5462031 -74.126778 18.45132874 -66 16 C-64.86304688 15.65066406 -63.72609375 15.30132812 -62.5546875 14.94140625 C-44.36301234 9.8925288 -23.7882073 6.69502298 -4.875 6.9375 C-3.94429688 6.94652344 -3.01359375 6.95554687 -2.0546875 6.96484375 C-1.37664062 6.97644531 -0.69859375 6.98804688 0 7 C0 4.69 0 2.38 0 0 Z " fill="#70B8B9" transform="translate(205,442)"/>
<path d="M0 0 C0.33 0 0.66 0 1 0 C1 1.65 1 3.3 1 5 C1.69480469 5.25652344 2.38960937 5.51304687 3.10546875 5.77734375 C6.3392155 7.14328536 9.26362397 8.82179223 12.3125 10.5625 C50.27072264 31.37876799 95.83749039 35.2346021 137.9921875 28.28125 C140.34460262 27.95172882 142.6281093 27.88334964 145 28 C144.50716008 31.36773944 143.97144867 34.06330946 142.5625 37.1875 C141.80222239 42.34049267 143.0715937 45.22156902 145.6640625 49.6640625 C150.08868981 54.08868981 156.0158192 53.8934324 162 54 C162.70703125 56.26171875 162.70703125 56.26171875 163 59 C161.63671875 61.01953125 161.63671875 61.01953125 159.6875 62.8125 C159.05199219 63.41707031 158.41648438 64.02164063 157.76171875 64.64453125 C156 66 156 66 154 66 C154.33 71.94 154.66 77.88 155 84 C150.39265957 85.15183511 150.0013846 84.77028132 146.125 82.5 C142.21680194 80.44096794 142.21680194 80.44096794 137.875 79.9375 C134.70662511 81.10842116 131.78471987 82.52365625 128.83203125 84.16015625 C127 85 127 85 124 85 C124.66 82.69 125.32 80.38 126 78 C125.175 77.98018066 124.35 77.96036133 123.5 77.93994141 C90.8784551 77.11621099 90.8784551 77.11621099 80 75 C78.67500488 74.74355713 78.67500488 74.74355713 77.32324219 74.48193359 C48.49944578 68.67813316 22.94939386 57.11361662 -0.9375 40.15234375 C-3.74690502 38.06471044 -3.74690502 38.06471044 -6 37 C-4.36715058 24.6032353 -2.1856349 12.30891035 0 0 Z " fill="#EF6D8D" transform="translate(35,281)"/>
<path d="M0 0 C1.859375 0.24609375 1.859375 0.24609375 4 1 C5.72943913 3.52476762 6.74988987 6.1872522 8 9 C13.94 8.505 13.94 8.505 20 8 C20 11.96 20 15.92 20 20 C21.464375 20.4125 22.92875 20.825 24.4375 21.25 C26.93359375 21.953125 26.93359375 21.953125 29 23 C30 24.875 30 24.875 30 27 C28.56640625 28.921875 28.56640625 28.921875 26.5625 30.75 C25.90378906 31.36359375 25.24507812 31.9771875 24.56640625 32.609375 C23.79103516 33.29773438 23.79103516 33.29773438 23 34 C24.61268692 36.71224618 26.24901874 39.37352812 28 42 C27.67 43.32 27.34 44.64 27 46 C24.36 46.66 21.72 47.32 19 48 C25.43605061 57.51000899 31.92305808 66.96980626 38.6875 76.25 C42.79587996 81.90049393 46.84281615 87.58309057 50.75 93.375 C51.16854248 93.98762695 51.58708496 94.60025391 52.01831055 95.23144531 C53.92220984 98.08588396 55.49284046 100.56822042 56 104 C33.57013499 108.12095624 0.68527352 106.12351568 -19 93 C-17.60756678 80.2116002 -15.39234596 67.63530294 -13 55 C-17.95 55.495 -17.95 55.495 -23 56 C-23 52.04 -23 48.08 -23 44 C-24.464375 43.566875 -25.92875 43.13375 -27.4375 42.6875 C-29.93359375 41.94921875 -29.93359375 41.94921875 -32 41 C-32.495 39.515 -32.495 39.515 -33 38 C-31.56640625 35.95703125 -31.56640625 35.95703125 -29.5625 33.8125 C-28.90378906 33.09707031 -28.24507812 32.38164063 -27.56640625 31.64453125 C-27.04949219 31.10183594 -26.53257813 30.55914062 -26 30 C-26.9590625 28.39125 -26.9590625 28.39125 -27.9375 26.75 C-29.40601273 24.19177818 -30.52854542 21.94659114 -31 19 C-27.46588679 16.87953208 -24.05606165 16.46800711 -20 16 C-19.67 12.37 -19.34 8.74 -19 5 C-14.71372952 3.92843238 -14.33924618 3.9634146 -10.75 5.9375 C-10.04359375 6.31777344 -9.3371875 6.69804688 -8.609375 7.08984375 C-8.07828125 7.39019531 -7.5471875 7.69054687 -7 8 C-4.39391727 5.4837822 -2.10618315 2.94865641 0 0 Z " fill="#F06D8D" transform="translate(72,90)"/>
<path d="M0 0 C2.06271639 0.3110685 4.12516466 0.62391516 6.1875 0.9375 C7.33605469 1.11152344 8.48460937 1.28554687 9.66796875 1.46484375 C12.46325212 1.91379313 15.22933586 2.42082162 18 3 C17.79503906 3.9178125 17.59007812 4.835625 17.37890625 5.78125 C15.34539408 15.04394657 13.92900281 23.74762359 13.875 33.25 C13.86786987 34.29776611 13.86786987 34.29776611 13.8605957 35.36669922 C13.87151498 38.71932014 13.95931472 41.7953501 15 45 C24.89180011 36.80262861 31.89047884 27.59334589 38.3359375 16.58984375 C40 14 40 14 42 13 C44.45669355 14.41097867 46.77914624 15.86043594 49.125 17.4375 C49.78371094 17.87126953 50.44242187 18.30503906 51.12109375 18.75195312 C52.75212943 19.82749114 54.37668453 20.91284486 56 22 C49.66653508 36.45754296 32.73103077 47.41708452 19 54 C20.93301425 59.93083919 23.01277857 65.78640658 25.23046875 71.6171875 C26 74 26 74 26 77 C18.17997114 80.83021822 8.93553163 81.59873453 0.4765625 79.3203125 C-1.4375 78.5 -1.4375 78.5 -4 77 C-3.52960495 69.16008251 -0.77062812 62.27928865 2 55 C1.27296875 54.67128906 0.5459375 54.34257812 -0.203125 54.00390625 C-11.63097048 48.59765627 -20.74058313 41.4904435 -29.6875 32.6875 C-30.30028809 32.08873047 -30.91307617 31.48996094 -31.54443359 30.87304688 C-32.1111377 30.30005859 -32.6778418 29.72707031 -33.26171875 29.13671875 C-33.76662842 28.62842529 -34.27153809 28.12013184 -34.79174805 27.59643555 C-36 26 -36 26 -37 22 C-32.38 19.03 -27.76 16.06 -23 13 C-20.03303349 15.96696651 -18.04022439 19.02344546 -15.875 22.5625 C-10.67803395 30.84798557 -4.77591144 37.99134116 3 44 C2.79503906 43.11699219 2.59007812 42.23398438 2.37890625 41.32421875 C-0.6696404 27.74432913 -2.51569751 13.83633632 0 0 Z " fill="#C52F68" transform="translate(244,79)"/>
<path d="M0 0 C2.88885918 0.61121969 5.12419375 1.50115074 7.66015625 3.00390625 C8.36172852 3.41108887 9.06330078 3.81827148 9.78613281 4.23779297 C10.53733398 4.67494629 11.28853516 5.11209961 12.0625 5.5625 C38.39316048 20.50329365 66.02449687 27.21176158 96.1875 27.25 C97.23789459 27.25250763 97.23789459 27.25250763 98.30950928 27.25506592 C110.23844569 27.25676148 121.80992437 26.31342897 133.59521484 24.38916016 C137.2016269 23.80554383 140.81879917 23.31399493 144.4375 22.8125 C146.29189119 22.54320825 148.14616514 22.27309526 150 22 C149.02241999 24.79223159 148.04301077 27.58379772 147.0625 30.375 C146.78470703 31.1690625 146.50691406 31.963125 146.22070312 32.78125 C145.95322266 33.54179687 145.68574219 34.30234375 145.41015625 35.0859375 C145.16402588 35.7876709 144.91789551 36.4894043 144.66430664 37.21240234 C144 39 144 39 143 41 C141.17749023 41.48657227 141.17749023 41.48657227 138.80859375 41.81640625 C137.94556641 41.94080078 137.08253906 42.06519531 136.19335938 42.19335938 C135.28392578 42.31517578 134.37449219 42.43699219 133.4375 42.5625 C132.55513672 42.68818359 131.67277344 42.81386719 130.76367188 42.94335938 C128.99864438 43.19252438 127.23257932 43.43444462 125.46557617 43.66918945 C123.37495361 43.94969184 121.28844668 44.26060688 119.203125 44.578125 C97.04253928 47.28090758 72.63082787 45.45896485 51 40 C49.85015625 39.73574219 48.7003125 39.47148437 47.515625 39.19921875 C30.1824294 34.97750695 12.88160051 27.92106701 -2 18 C-2.95241664 11.82465341 -2.07437579 5.8341819 0 0 Z " fill="#F2C068" transform="translate(38,268)"/>
<path d="M0 0 C1.859375 0.24609375 1.859375 0.24609375 4 1 C5.72943913 3.52476762 6.74988987 6.1872522 8 9 C13.94 8.505 13.94 8.505 20 8 C20 11.96 20 15.92 20 20 C21.464375 20.4125 22.92875 20.825 24.4375 21.25 C26.93359375 21.953125 26.93359375 21.953125 29 23 C30 24.875 30 24.875 30 27 C28.56640625 28.921875 28.56640625 28.921875 26.5625 30.75 C25.90378906 31.36359375 25.24507812 31.9771875 24.56640625 32.609375 C23.79103516 33.29773438 23.79103516 33.29773438 23 34 C24.61268692 36.71224618 26.24901874 39.37352812 28 42 C27.8125 44.125 27.8125 44.125 27 46 C24.24921116 46.91692961 22.64051087 47.10886083 19.8125 47.0625 C18.554375 47.041875 17.29625 47.02125 16 47 C16 50.63 16 54.26 16 58 C10.35393915 59.12921217 10.43827591 58.73124671 6 56 C3.9172483 55.76924898 3.9172483 55.76924898 2 57 C0.32932867 58.99665598 -1.33752986 60.99651034 -3 63 C-3.99 63 -4.98 63 -6 63 C-7.32 60.36 -8.64 57.72 -10 55 C-16.435 55.495 -16.435 55.495 -23 56 C-23 52.04 -23 48.08 -23 44 C-24.464375 43.566875 -25.92875 43.13375 -27.4375 42.6875 C-29.93359375 41.94921875 -29.93359375 41.94921875 -32 41 C-32.495 39.515 -32.495 39.515 -33 38 C-31.56640625 35.95703125 -31.56640625 35.95703125 -29.5625 33.8125 C-28.90378906 33.09707031 -28.24507812 32.38164063 -27.56640625 31.64453125 C-27.04949219 31.10183594 -26.53257813 30.55914062 -26 30 C-26.9590625 28.39125 -26.9590625 28.39125 -27.9375 26.75 C-29.40601273 24.19177818 -30.52854542 21.94659114 -31 19 C-27.46588679 16.87953208 -24.05606165 16.46800711 -20 16 C-19.67 12.37 -19.34 8.74 -19 5 C-14.71372952 3.92843238 -14.33924618 3.9634146 -10.75 5.9375 C-10.04359375 6.31777344 -9.3371875 6.69804688 -8.609375 7.08984375 C-8.07828125 7.39019531 -7.5471875 7.69054687 -7 8 C-4.39391727 5.4837822 -2.10618315 2.94865641 0 0 Z " fill="#F3C168" transform="translate(72,90)"/>
<path d="M0 0 C4.59517784 1.14879446 5.40906725 2.20613419 8 6 C8 6.66 8 7.32 8 8 C11.37462715 7.45276317 13.08235 6.9451 16 5 C19.1875 4.875 19.1875 4.875 22 5 C22.495 10.445 22.495 10.445 23 16 C26.63 16.99 30.26 17.98 34 19 C33.01574101 23.92129494 32.1837982 25.40538913 29 29 C30.09898852 31.56430654 31.06785768 33.06386605 33.125 35 C35 37 35 37 35 41 C31.7 42.32 28.4 43.64 25 45 C25.185625 46.60875 25.37125 48.2175 25.5625 49.875 C26.125 54.75 26.125 54.75 25 57 C20.65535464 56.39174965 16.32448133 55.73832608 12 55 C10.68 57.64 9.36 60.28 8 63 C4 62 4 62 1.75 58.9375 C1.1725 57.968125 0.595 56.99875 0 56 C-4.19469571 56.59924224 -8.00999834 57.57499941 -12 59 C-14.26706067 56.73293933 -13.74409224 50.88810189 -14 48 C-17.3 47.34 -20.6 46.68 -24 46 C-24.33 44.35 -24.66 42.7 -25 41 C-23.68678142 39.3174387 -22.35386936 37.65002828 -21 36 C-20.76924898 33.9172483 -20.76924898 33.9172483 -22 32 C-22.845625 31.175 -23.69125 30.35 -24.5625 29.5 C-27 27 -27 27 -27 23 C-23.7 21.68 -20.4 20.36 -17 19 C-17 15.04 -17 11.08 -17 7 C-12.96005961 7.55450162 -9.00222119 8.19955576 -5 9 C-3.35 6.03 -1.7 3.06 0 0 Z " fill="#C62D67" transform="translate(443,87)"/>
<path d="M0 0 C5.04841538 1.65619951 9.04806512 4.63550641 13.375 7.625 C33.10915091 20.94321934 54.53188084 30.52529096 78 35 C79.44016745 35.28744353 80.88027083 35.57520825 82.3203125 35.86328125 C94.28883175 38.20739291 105.84423955 39.22461013 118 39.5625 C119.45704157 39.60577365 120.91407299 39.6493905 122.37109375 39.69335938 C125.91395589 39.80016921 129.45691585 39.89992491 133 40 C131.02 45.61 129.04 51.22 127 57 C97.784735 57.55648124 69.37744182 53.42977559 42 43 C41.30148926 42.73493652 40.60297852 42.46987305 39.88330078 42.19677734 C27.62163923 37.43250203 16.19026168 30.87188413 5 24 C4.2886792 23.57340088 3.5773584 23.14680176 2.84448242 22.70727539 C-1.79121765 19.7237067 -1.79121765 19.7237067 -2.75390625 16.38671875 C-2.69074219 15.49597656 -2.62757812 14.60523438 -2.5625 13.6875 C-2.50191406 12.73617188 -2.44132812 11.78484375 -2.37890625 10.8046875 C-1.87437364 7.07010592 -1.08924343 3.60811886 0 0 Z " fill="#F2C068" transform="translate(29,318)"/>
<path d="M0 0 C4.02652275 1.74849003 7.33868982 4.4309207 10.8125 7.0625 C42.70031994 30.70908142 79.03792159 41.92801346 118 47 C116.25192871 52.46737191 114.34205919 57.75824848 112 63 C75.40717067 60.62862112 40.65889108 48.18352365 9.98583984 28.26074219 C8.15001108 27.09523693 6.28829178 26.01304284 4.39453125 24.9453125 C1.44339452 23.14246344 -0.81977502 21.68409919 -3 19 C-3.74543781 14.72233381 -3.08308599 11.16703083 -2 7 C-1.81695313 6.23300781 -1.63390625 5.46601563 -1.4453125 4.67578125 C-1.02935627 3.09834725 -0.52639557 1.54409369 0 0 Z " fill="#F2C068" transform="translate(19,376)"/>
<path d="M0 0 C2.55416142 12.90923407 4.62063644 25.88529232 6.64428711 38.88671875 C7.19406366 42.417149 7.74814732 45.94688504 8.30273438 49.4765625 C8.65389604 51.72131504 9.00481666 53.9661053 9.35546875 56.2109375 C9.52104782 57.2659848 9.68662689 58.3210321 9.85722351 59.40805054 C10.00770645 60.37731476 10.15818939 61.34657898 10.31323242 62.34521484 C10.44630295 63.19852386 10.57937347 64.05183289 10.71647644 64.93099976 C11 67 11 67 11 69 C-1.12534384 69.69397834 -10.53175567 67.92103147 -19.99609375 59.98046875 C-27.42782161 52.63566168 -31.03110515 44.04020482 -31.5 33.6875 C-31.24228963 24.0961923 -27.64301144 15.71030764 -21.03515625 8.75390625 C-14.71124942 3.30393664 -8.40368071 -0.18674846 0 0 Z " fill="#FEE5B3" transform="translate(460,158)"/>
<path d="M0 0 C2.97576584 1.12314897 5.83545055 2.38764543 8.6796875 3.8046875 C17.97916651 8.41719352 26.80846929 11.80289306 37 14 C37.66902344 14.17587646 38.33804688 14.35175293 39.02734375 14.53295898 C46.8531735 16.41655178 54.68178774 16.33734806 62.68359375 16.31567383 C65.09942636 16.31253325 67.51400715 16.33596988 69.9296875 16.36132812 C79.04781602 16.39662275 87.48019644 15.65331979 96.38232422 13.64526367 C100.47152723 12.91589644 103.85457083 12.69837057 108 13 C110.17293296 15.24701022 111.46986838 16.88080673 113 19.5 C113.39316406 20.12003906 113.78632813 20.74007812 114.19140625 21.37890625 C115.15307314 22.90350009 116.08012154 24.44983446 117 26 C116.67 26.66 116.34 27.32 116 28 C113.67089844 28.67016602 113.67089844 28.67016602 110.609375 29.25390625 C109.50722656 29.46853516 108.40507812 29.68316406 107.26953125 29.90429688 C106.10808594 30.12150391 104.94664062 30.33871094 103.75 30.5625 C102.60402344 30.78357422 101.45804687 31.00464844 100.27734375 31.23242188 C98.13453867 31.64526732 95.99104475 32.05456388 93.84667969 32.45922852 C92.11172544 32.7888103 90.38148213 33.14695535 88.66333008 33.55517578 C84.93777287 34.17741111 81.23187384 34.20194792 77.46484375 34.23828125 C76.63771881 34.2480751 75.81059387 34.25786896 74.95840454 34.26795959 C40.64759742 34.59072935 40.64759742 34.59072935 26 30 C25.25331055 29.77505859 24.50662109 29.55011719 23.73730469 29.31835938 C14.6092928 26.51390037 6.18377669 22.9845033 -2 18 C-2.2361959 11.59646678 -1.823321 6.15370839 0 0 Z " fill="#F2BF68" transform="translate(47,216)"/>
<path d="M0 0 C3.3 21.45 6.6 42.9 10 65 C2.42537524 67.52487492 -6.38228351 66.79293436 -13.5859375 63.44921875 C-22.5490974 58.06842211 -28.45371257 51.09116334 -31.59375 41.11328125 C-33.62769682 30.53284638 -31.97374321 21.90100984 -26 13 C-19.73821509 4.7118954 -10.29106275 0 0 0 Z " fill="#FEE5B3" transform="translate(482,294)"/>
<path d="M0 0 C4.59970532 4.920615 7.92306129 10.57411352 8.1875 17.4375 C7.69668515 24.76097426 5.46220872 30.96627318 0.43359375 36.37109375 C-5.55628012 41.53015737 -12.5320692 43.38519218 -20.3125 42.875 C-27.27811648 41.33382702 -32.58031494 38.67692947 -36.7890625 32.8203125 C-40.91669636 25.78719336 -41.45416719 18.87602827 -40.3125 10.875 C-38.09265173 3.87942311 -33.55000551 -0.48130866 -27.3125 -4.125 C-17.45956192 -8.64092995 -8.64742938 -5.54740753 0 0 Z " fill="#FEE6B4" transform="translate(422.3125,265.125)"/>
<path d="M0 0 C4.78243731 5.04329753 4.47827227 13.43260552 4.93359375 20.0390625 C5.04445313 21.26367188 5.1553125 22.48828125 5.26953125 23.75 C5.64636093 31.01742954 5.64636093 31.01742954 3.05859375 34.7265625 C-9.35452957 39.9400743 -27.97761707 37.72019139 -41.06640625 36.0390625 C-43.77520088 29.60567526 -44.29510956 23.58513638 -42.00390625 16.97265625 C-38.20321707 8.72061642 -33.57757759 3.83598873 -25.94140625 -0.8984375 C-18.43357061 -3.64730181 -7.2612931 -3.31467895 0 0 Z " fill="#FEE6B3" transform="translate(499.06640625,413.9609375)"/>
<path d="M0 0 C1.65 0 3.3 0 5 0 C5.42925781 1.19238281 5.85851562 2.38476562 6.30078125 3.61328125 C9.58595894 12.23674122 9.58595894 12.23674122 16.25878906 18.06738281 C21.16050235 19.3603318 26.11389004 19.71865344 31.17163086 19.76733398 C33 20 33 20 35 22 C34.44397102 27.23047541 29.96188972 30.14060792 26.3046875 33.49023438 C23.14321719 36.49515845 21.26998416 38.41870635 21 43 C8.9895138 43.6524986 -2.96999836 44.16631339 -15 44 C-15.25007812 42.92105469 -15.50015625 41.84210938 -15.7578125 40.73046875 C-17.02531996 36.92396049 -17.79864158 35.70973779 -20.875 33.3125 C-21.58269531 32.73371094 -22.29039062 32.15492188 -23.01953125 31.55859375 C-23.99986328 30.78708984 -23.99986328 30.78708984 -25 30 C-27.5625 27.875 -27.5625 27.875 -29 26 C-28.58984375 23.3828125 -28.58984375 23.3828125 -28 21 C-25.60530271 20.49395076 -23.20948283 19.99500483 -20.8125 19.5 C-19.80219727 19.28537109 -19.80219727 19.28537109 -18.77148438 19.06640625 C-15.12490207 18.31930158 -11.72351043 17.82647718 -8 18 C-7.73445313 17.14148438 -7.46890625 16.28296875 -7.1953125 15.3984375 C-5.98976199 11.97089192 -4.52755614 8.85826202 -2.875 5.625 C-2.33617187 4.56539063 -1.79734375 3.50578125 -1.2421875 2.4140625 C-0.83226562 1.61742187 -0.42234375 0.82078125 0 0 Z " fill="#C53069" transform="translate(221,404)"/>
<path d="M0 0 C5.18439227 2.00306065 7.1273606 7.7844507 9.45703125 12.56640625 C11.7784421 16.62057866 14.7840106 18.32107027 18.875 20.375 C25.60645161 23.91895161 25.60645161 23.91895161 27.75 26.0625 C27.8125 28.4453125 27.8125 28.4453125 26.75 31.0625 C24.42121304 32.52987341 22.2070259 33.734492 19.75 34.9375 C12.66743708 38.71173289 9.11797114 42.97232398 5.54101562 50.09716797 C3.16287627 54.81590985 3.16287627 54.81590985 0.76171875 56.25 C-1.25 56.0625 -1.25 56.0625 -3.296875 54.4765625 C-5.3762221 51.90648949 -6.94400196 49.35303168 -8.5 46.4375 C-9.02078125 45.47585937 -9.5415625 44.51421875 -10.078125 43.5234375 C-11.25 41.0625 -11.25 41.0625 -11.25 39.0625 C-11.95640625 38.79050781 -12.6628125 38.51851562 -13.390625 38.23828125 C-16.33708919 37.02668873 -19.16438069 35.70229692 -22 34.25 C-22.96421875 33.76917969 -23.9284375 33.28835937 -24.921875 32.79296875 C-27.25 31.0625 -27.25 31.0625 -28.078125 28.36328125 C-28.13484375 27.60402344 -28.1915625 26.84476563 -28.25 26.0625 C-25.90333113 23.95858998 -23.68323375 22.25131027 -20.78515625 20.98828125 C-11.25035584 16.74910631 -7.93375453 9.8962789 -3.25 1.0625 C-2.25 0.0625 -2.25 0.0625 0 0 Z " fill="#F06C8E" transform="translate(168.25,103.9375)"/>
<path d="M0 0 C4.68796317 2.8950501 8.77605467 6.42344712 10.234375 11.89453125 C11.16656452 18.74158704 11.3930195 24.99387098 7.671875 31.01953125 C3.76502902 35.94197419 -0.43466099 38.66549649 -6.703125 39.76953125 C-13.58206018 40.31505609 -19.48890071 38.35043176 -24.765625 33.89453125 C-29.04882232 28.7894231 -31.16383665 23.59586437 -30.765625 16.89453125 C-29.34483488 9.81368295 -26.53945458 5.12565504 -20.890625 0.58203125 C-14.68307177 -2.66890719 -6.4081782 -2.56146106 0 0 Z " fill="#F3C267" transform="translate(349.765625,134.10546875)"/>
<path d="M0 0 C6.04554274 2.70886819 9.9961987 7.10210843 13.15625 12.84765625 C14.92164581 19.90923947 13.30961359 25.21337706 9.78125 31.34765625 C5.88102478 36.1965849 1.59809661 38.8436604 -4.64453125 39.66796875 C-10.48116319 39.93367278 -14.69847638 39.14027607 -19.21875 35.34765625 C-24.43296135 30.15703861 -26.36711459 26.52491429 -26.53125 19.03515625 C-26.47677402 13.58150508 -26.10062101 10.43383626 -22.21875 6.34765625 C-15.55145781 0.00124978 -9.14436447 -2.68857195 0 0 Z " fill="#FEE7B4" transform="translate(416.21875,350.65234375)"/>
<path d="M0 0 C3.06734524 1.00092318 6.10386035 2.03938634 9.12109375 3.18359375 C21.41893676 7.83330824 34.63124202 11.33745764 47.875 10.89453125 C61.32185383 10.56959043 61.32185383 10.56959043 66.04296875 14.59375 C68.87447062 18.84358158 70.98957287 22.97221201 72 28 C49.57013499 32.12095624 16.68527352 30.12351568 -3 17 C-2.69268013 14.35346869 -2.37940678 11.707885 -2.0625 9.0625 C-1.97548828 8.30775391 -1.88847656 7.55300781 -1.79882812 6.77539062 C-1.11328125 1.11328125 -1.11328125 1.11328125 0 0 Z " fill="#F2BF69" transform="translate(56,166)"/>
<path d="M0 0 C1.80859375 0.09375 1.80859375 0.09375 4 1 C5.53515625 3.90625 5.53515625 3.90625 7.0625 7.5 C9.3197969 12.31647234 9.3197969 12.31647234 13.7578125 15.01171875 C16.65909806 15.24066992 16.65909806 15.24066992 19.44921875 15.04296875 C22.24696731 14.99583975 23.63686725 15.5666244 26 17 C25.63272011 19.73090367 25.28728244 20.76457145 23.1171875 22.54296875 C22.37726563 23.08566406 21.63734375 23.62835938 20.875 24.1875 C18.58108702 26.32222685 17.1544535 27.86561274 16.72363281 31.02978516 C16.66079829 36.06846423 17.27581717 41.02124305 18 46 C16.34375 46.6875 16.34375 46.6875 14 47 C11.06855256 45.62049532 8.41409594 43.94713596 5.65625 42.25 C3.17618035 40.81813131 3.17618035 40.81813131 0.9375 41.1484375 C-2.14231072 42.50206399 -4.92655573 44.26954311 -7.78125 46.0390625 C-10.36233411 47.15692639 -11.41539999 46.97509909 -14 46 C-13.81179687 44.87722656 -13.62359375 43.75445312 -13.4296875 42.59765625 C-12.05459 33.81226969 -12.05459 33.81226969 -15.16015625 25.8671875 C-17.67516625 23.66699591 -20.15794483 21.75318342 -23 20 C-22.67 18.68 -22.34 17.36 -22 16 C-16.72 15.34 -11.44 14.68 -6 14 C-5.34 12.02 -4.68 10.04 -4 8 C-3.32466564 6.52609508 -2.61984233 5.06502851 -1.875 3.625 C-1.52179688 2.93664062 -1.16859375 2.24828125 -0.8046875 1.5390625 C-0.53914063 1.03117187 -0.27359375 0.52328125 0 0 Z " fill="#C4316A" transform="translate(241,277)"/>
<path d="M0 0 C0.66 0 1.32 0 2 0 C2.6509259 1.24735567 3.29551669 2.49801832 3.9375 3.75 C4.47697266 4.79414063 4.47697266 4.79414063 5.02734375 5.859375 C8.18306532 12.80449718 8.03996066 21.45398437 5.875 28.6875 C2.2630917 37.89204051 -3.20575141 44.33814429 -12 49 C-17.29187856 50.9043221 -21.90269839 51.25666042 -27.4375 51.125 C-28.16904297 51.11597656 -28.90058594 51.10695313 -29.65429688 51.09765625 C-31.43634298 51.07436153 -33.21821759 51.0385019 -35 51 C-34.39295849 47.90071349 -33.41654477 45.87660113 -31.55078125 43.33984375 C-31.03918457 42.63794922 -30.52758789 41.93605469 -30.00048828 41.21289062 C-29.44345215 40.46201172 -28.88641602 39.71113281 -28.3125 38.9375 C-27.73741699 38.15181641 -27.16233398 37.36613281 -26.56982422 36.55664062 C-24.7198889 34.03277531 -22.86082947 31.51584144 -21 29 C-19.14400899 26.48388598 -17.28863407 23.96731862 -15.43334961 21.45068359 C-14.23652815 19.82874572 -13.03814534 18.20795869 -11.83813477 16.58837891 C-8.17978564 11.6424196 -4.62717178 6.65244803 -1.234375 1.51953125 C-0.82703125 1.01808594 -0.4196875 0.51664063 0 0 Z " fill="#FEE3B2" transform="translate(374,209)"/>
<path d="M0 0 C0.66 0.33 1.32 0.66 2 1 C2.31517578 1.98806641 2.31517578 1.98806641 2.63671875 2.99609375 C3.94114136 5.41386724 3.94114136 5.41386724 7.51953125 5.72265625 C8.94894893 5.85429565 10.38022421 5.96684489 11.8125 6.0625 C16.87658635 6.43371357 20.77791496 6.93919572 25 10 C23.68470068 13.45166428 21.6519261 15.25763331 18.8605957 17.60180664 C15.23923161 20.72631113 12.25747208 23.32240847 11.5 28.2578125 C11.81256132 31.56314847 12.37390154 34.74107725 13 38 C13.06951053 39.93636478 13.09533617 41.87516625 13.0625 43.8125 C13.05347656 44.62332031 13.04445312 45.43414062 13.03515625 46.26953125 C13.02355469 46.84058594 13.01195312 47.41164062 13 48 C9.49741117 49.1904098 9.12270287 49.05922641 5.50390625 47.3125 C3.51253662 46.16771264 1.54424027 44.98901185 -0.42382812 43.8046875 C-4.34641165 41.50073787 -4.34641165 41.50073787 -8.796875 41.18359375 C-11.21875486 42.08106342 -13.62565935 42.98242544 -16 44 C-15.36405488 38.83294589 -13.78083719 34.40836889 -11.875 29.609375 C-11.56804199 28.82355042 -11.26108398 28.03772583 -10.94482422 27.22808838 C-9.96864094 24.73322545 -8.98433437 22.24165657 -8 19.75 C-7.33802934 18.06009643 -6.67656567 16.36999418 -6.015625 14.6796875 C-1.2137109 2.42742179 -1.2137109 2.42742179 0 0 Z " fill="#C4336B" transform="translate(235,165)"/>
<path d="M0 0 C0.66 0 1.32 0 2 0 C7.28 13.53 12.56 27.06 18 41 C17.01 41.495 17.01 41.495 16 42 C15.1646875 41.505 15.1646875 41.505 14.3125 41 C10.95028957 39.54607117 8.39299769 39.92534948 5 41 C1.90039464 42.52102651 -1.12497307 44.12498482 -4.1328125 45.8203125 C-7.33217917 47.13667317 -8.75582497 47.03385798 -12 46 C-11.855625 44.91460937 -11.71125 43.82921875 -11.5625 42.7109375 C-11.37480044 41.2656509 -11.18731162 39.82033693 -11 38.375 C-10.85691406 37.30572266 -10.85691406 37.30572266 -10.7109375 36.21484375 C-10.52950709 34.8022784 -10.3634067 33.38765453 -10.21313477 31.97143555 C-10.02819846 30.26082771 -9.78309149 28.55693098 -9.52734375 26.85546875 C-10.25927574 22.43363167 -13.17599431 20.64600558 -16.5625 17.9375 C-18.92740008 16.0431544 -20.899139 14.2203979 -23 12 C-22.90234375 9.12890625 -22.90234375 9.12890625 -22 7 C-21.40461426 6.89453857 -20.80922852 6.78907715 -20.19580078 6.68041992 C-17.50298761 6.19586079 -14.81415549 5.69194595 -12.125 5.1875 C-11.18785156 5.02185547 -10.25070312 4.85621094 -9.28515625 4.68554688 C-7.94130859 4.4293457 -7.94130859 4.4293457 -6.5703125 4.16796875 C-5.32918701 3.94016724 -5.32918701 3.94016724 -4.06298828 3.70776367 C-1.63323098 3.10744667 -1.63323098 3.10744667 0 0 Z " fill="#C4326A" transform="translate(302,239)"/>
<path d="M0 0 C0.66 0 1.32 0 2 0 C4.14057344 5.37344658 6.27670522 10.7486288 8.40869141 16.12548828 C9.13500283 17.9554031 9.86253807 19.78483267 10.59130859 21.61376953 C11.63699259 24.23864976 12.67830159 26.86522836 13.71875 29.4921875 C14.04685669 30.31306854 14.37496338 31.13394958 14.7130127 31.97970581 C17 37.77225659 17 37.77225659 17 40 C16.14341797 39.76990234 16.14341797 39.76990234 15.26953125 39.53515625 C7.69553317 38.07815503 3.39671868 40.44004477 -3.01953125 44.43359375 C-6.05474117 46.0287696 -7.64121635 46.35388294 -11 46 C-11.02804921 44.41677806 -11.04684498 42.833393 -11.0625 41.25 C-11.08054687 40.24195313 -11.09859375 39.23390625 -11.1171875 38.1953125 C-11 35 -11 35 -10.3203125 32.0546875 C-9.58438668 28.6476235 -9.29291765 26.43684877 -10 23 C-12.37815477 19.69166856 -15.32684302 17.00350964 -18.4128418 14.36376953 C-20.01371766 12.98862214 -21.51607414 11.50059919 -23 10 C-22.73522632 7.87788799 -22.53236459 6.53236459 -21 5 C-17.91151377 4.55179285 -14.82406589 4.18149574 -11.72265625 3.83789062 C-5.35564864 3.18465662 -5.35564864 3.18465662 0 0 Z " fill="#C53069" transform="translate(359,388)"/>
<path d="M0 0 C2.05644432 2.5705554 3.16937477 4.46779698 4.3125 7.625 C5.21090188 9.55814237 5.21090188 9.55814237 7 11 C11.6293746 12.22842038 16.22870355 12.68744181 21 13 C21.70703125 15.26171875 21.70703125 15.26171875 22 18 C20.63671875 20.01953125 20.63671875 20.01953125 18.6875 21.8125 C18.05199219 22.41707031 17.41648438 23.02164062 16.76171875 23.64453125 C15 25 15 25 13 25 C13.33 30.94 13.66 36.88 14 43 C9.39265957 44.15183511 9.0013846 43.77028132 5.125 41.5 C1.21680194 39.44096794 1.21680194 39.44096794 -3.125 38.9375 C-6.29337489 40.10842116 -9.21528013 41.52365625 -12.16796875 43.16015625 C-14 44 -14 44 -17 44 C-14.39650999 35.83365722 -11.33966839 27.85089892 -8.27441406 19.84960938 C-7.36702093 17.47915565 -6.46462211 15.10683899 -5.5625 12.734375 C-4.98727776 11.22905253 -4.41176761 9.72384005 -3.8359375 8.21875 C-3.56615082 7.50843628 -3.29636414 6.79812256 -3.0184021 6.06628418 C-1.11467161 1.11467161 -1.11467161 1.11467161 0 0 Z " fill="#C4316A" transform="translate(176,322)"/>
<path d="M0 0 C0.99 0.33 1.98 0.66 3 1 C3.7061024 2.62089094 4.34270174 4.27254262 4.9375 5.9375 C6.09201278 8.72476255 6.09201278 8.72476255 8 11 C11.97038856 12.46686679 15.78644565 12.85215599 20 13 C20 14.32 20 15.64 20 17 C18.43359375 18.46484375 18.43359375 18.46484375 16.4375 19.9375 C13.65440396 22.4858771 13.03546717 23.51032422 12.7578125 27.34375 C13.03404921 30.60192653 13.42414422 33.78198241 14 37 C8.3203125 36.203125 8.3203125 36.203125 5.4375 34.375 C3.11151737 32.77625041 3.11151737 32.77625041 0.5625 33.125 C-2.14741751 33.98634426 -2.14741751 33.98634426 -5.125 35.5625 C-8 37 -8 37 -11 37 C-10.91878906 36.07058594 -10.83757812 35.14117187 -10.75390625 34.18359375 C-10.15700056 27.07159858 -10.15700056 27.07159858 -12.55859375 20.6171875 C-14.44761174 18.79849363 -14.44761174 18.79849363 -16.46875 17.33203125 C-16.9740625 16.89246094 -17.479375 16.45289063 -18 16 C-18 15.01 -18 14.02 -18 13 C-17.20335937 12.98324219 -16.40671875 12.96648437 -15.5859375 12.94921875 C-12.09571581 12.66473596 -9.27914928 12.25575564 -6 11 C-3.21510296 7.6285404 -1.55185085 4.07020529 0 0 Z " fill="#C4316A" transform="translate(291,347)"/>
<path d="M0 0 C1.953125 0.09765625 1.953125 0.09765625 4 1 C5.484375 2.99609375 5.484375 2.99609375 6.75 5.4375 C7.17796875 6.24058594 7.6059375 7.04367188 8.046875 7.87109375 C9 10 9 10 9 12 C10.3303125 12.4021875 10.3303125 12.4021875 11.6875 12.8125 C14.80707281 13.93083742 17.3080828 15.077202 20 17 C20.495 18.485 20.495 18.485 21 20 C18.59381578 22.70695724 16.275735 24.42891468 13.125 26.125 C7.98694691 29.17511766 5.66434421 33.80251034 3 39 C0.67578125 38.77734375 0.67578125 38.77734375 -2 38 C-3.58203125 36.00390625 -3.58203125 36.00390625 -4.8125 33.5625 C-5.44091797 32.35787109 -5.44091797 32.35787109 -6.08203125 31.12890625 C-7 29 -7 29 -7 27 C-7.886875 26.731875 -8.77375 26.46375 -9.6875 26.1875 C-12.85370905 25.05244393 -15.36497607 24.092519 -18 22 C-18.1328125 19.39453125 -18.1328125 19.39453125 -18 17 C-17.26394531 16.67128906 -16.52789062 16.34257813 -15.76953125 16.00390625 C-9.43438807 12.91583778 -5.82873989 10.44641154 -2.90234375 3.953125 C-2 2 -2 2 0 0 Z " fill="#8EC9CD" transform="translate(225,17)"/>
<path d="M0 0 C3.64284118 2.18137444 4.82065253 3.35275811 5.96875 7.49609375 C6.1440625 8.79675781 6.319375 10.09742188 6.5 11.4375 C7.31675255 17.48507221 8.48334006 19.91928351 13 24 C14.81602859 29.90209292 13.64132675 34.60094906 11 40 C8.94527336 43.26280688 6.86092896 46.39747753 4 49 C2.68 49 1.36 49 0 49 C0.51122696 44.52676412 2.16665031 42.41668638 5 39 C7.7232488 34.52609126 8.60526556 31.24563488 8 26 C7.01 25.34 6.02 24.68 5 24 C4.9175 24.70125 4.835 25.4025 4.75 26.125 C3.02235323 32.74764597 -1.63344647 37.09042933 -7 41 C-10.72983391 43.0013743 -13.78459909 43.52692511 -18 43 C-20.875 41.4375 -20.875 41.4375 -23 39 C-23.70839887 34.7496068 -23.3301305 32.62357983 -21.3125 28.8125 C-17.23485396 23.85320077 -13.11408003 21.03802668 -7 19 C-3.97958239 18.77358911 -1.02149829 18.81501031 2 19 C1.91231752 17.4156683 1.80412671 15.83246433 1.6875 14.25 C1.62949219 13.36828125 1.57148438 12.4865625 1.51171875 11.578125 C0.9358819 8.67696226 -0.07596148 7.20774393 -2 5 C-10.39642683 5.36506204 -16.83521918 9.91577444 -22.9375 15.4375 C-23.948125 16.283125 -24.95875 17.12875 -26 18 C-26.99 17.67 -27.98 17.34 -29 17 C-28.10779015 11.55157183 -24.28420374 9.09821888 -20 6 C-13.52589427 2.03926865 -7.69279692 -1.3496135 0 0 Z M-16.5625 29.5 C-17.86436776 31.76411784 -18.7321333 33.41062189 -19 36 C-18.17331714 38.20068301 -18.17331714 38.20068301 -15.875 38.875 C-11.75855846 39.05397572 -9.10607903 37.51899596 -6 35 C-2.65485928 31.34055076 0.05173464 27.93980095 1 23 C-5.64403617 22.67908949 -11.78867296 24.84260777 -16.5625 29.5 Z " fill="#8FCACD" transform="translate(365,31)"/>
<path d="M0 0 C3.50945874 2.51712903 5.2320034 5.7995288 6 10 C6.06548492 11.58211573 6.08578381 13.16670081 6.0625 14.75 C6.05347656 15.54921875 6.04445312 16.3484375 6.03515625 17.171875 C6.02355469 17.77515625 6.01195312 18.3784375 6 19 C6.62390625 19.29648437 7.2478125 19.59296875 7.890625 19.8984375 C10.57862356 21.30217008 11.58005957 22.30211317 13 25 C14.07424183 32.78825329 11.13192346 38.73381236 6.5546875 44.96875 C5.41418952 46.35038184 4.21372995 47.68223606 3 49 C1.68 48.67 0.36 48.34 -1 48 C-0.40234638 44.65756677 0.74384878 42.87086585 2.9375 40.3125 C6.07615759 36.27384179 7.91820523 32.18374364 8 27 C7.34 26.01 6.68 25.02 6 24 C5.6596875 24.64066406 5.319375 25.28132813 4.96875 25.94140625 C0.89183953 33.21695659 -3.49052663 38.83545278 -11.125 42.5 C-15.61403884 43.28070241 -18.58128603 42.90943203 -22.4375 40.4375 C-24.31949418 37.50158909 -24.37364321 35.49653336 -23.7265625 32.08984375 C-21.80834764 26.57239778 -17.89417241 23.16060271 -12.75 20.625 C-7.93835349 18.706899 -3.14396654 18.2147794 2 18 C1.52511102 16.01980257 1.04497141 14.04086365 0.5625 12.0625 C0.29566406 10.96035156 0.02882812 9.85820313 -0.24609375 8.72265625 C-0.72995725 6.10578746 -0.72995725 6.10578746 -2 5 C-8.05227508 4.09215874 -12.13163994 6.76510285 -17 10 C-19.36485695 11.83428007 -21.68149465 13.70058468 -23.95703125 15.64453125 C-26 17 -26 17 -30 17 C-29.12019525 11.55472197 -25.22532789 9.14868184 -21 6 C-14.56070379 1.62089529 -7.96344363 -2.18097916 0 0 Z M-17.78515625 30.00390625 C-19.30684552 32.50417383 -19.31112914 34.12205549 -19 37 C-17.92597695 38.2666955 -17.92597695 38.2666955 -15.4375 38.4375 C-9.95716936 37.74000337 -6.15629382 34.51166068 -2.6015625 30.37109375 C-0.7415374 27.73935611 0 26.26704273 0 23 C-6.50848365 22.14362057 -13.43775118 25.12377758 -17.78515625 30.00390625 Z " fill="#EA4C79" transform="translate(144,29)"/>
<path d="M0 0 C6.74661819 5.02073912 10.76960544 10.83193345 13 19 C13.1953125 22.4296875 13.1953125 22.4296875 13.125 25.875 C13.10695313 27.02742188 13.08890625 28.17984375 13.0703125 29.3671875 C13.03550781 30.67042969 13.03550781 30.67042969 13 32 C10.46696386 29.46696386 9.70619316 27.08887098 8.3984375 23.75 C8.1571109 23.13608398 7.9157843 22.52216797 7.66714478 21.88964844 C7.15871261 20.59278276 6.65286302 19.29490205 6.14941406 17.99609375 C5.37700843 16.00517683 4.5954184 14.01805297 3.8125 12.03125 C0 2.28056941 0 2.28056941 0 0 Z " fill="#FAE1B3" transform="translate(323,290)"/>
</svg>
